<svg width="18" height="17" viewBox="0 0 18 17" fill="none" xmlns="http://www.w3.org/2000/svg">
<path d="M17.9502 2.27681V6.40182C17.9502 6.58415 17.8778 6.75902 17.7488 6.88795C17.6199 7.01688 17.445 7.08932 17.2627 7.08932H13.1377C12.9554 7.08932 12.7805 7.01688 12.6516 6.88795C12.5226 6.75902 12.4502 6.58415 12.4502 6.40182C12.4502 6.21948 12.5226 6.04461 12.6516 5.91568C12.7805 5.78675 12.9554 5.71431 13.1377 5.71431H15.4924L13.2073 3.62088L13.1858 3.60025C12.2303 2.64505 11.0144 1.99258 9.69018 1.72436C8.36596 1.45614 6.99205 1.58406 5.7401 2.09214C4.48815 2.60021 3.41366 3.46592 2.65086 4.58111C1.88806 5.6963 1.47076 7.01154 1.45111 8.36252C1.43145 9.71349 1.8103 11.0403 2.54034 12.1772C3.27037 13.3141 4.31922 14.2107 5.55586 14.755C6.7925 15.2993 8.1621 15.4671 9.49357 15.2376C10.825 15.008 12.0593 14.3912 13.0423 13.4642C13.1748 13.3388 13.3517 13.2712 13.5341 13.2763C13.7165 13.2814 13.8893 13.3587 14.0147 13.4912C14.14 13.6238 14.2076 13.8007 14.2025 13.983C14.1975 14.1654 14.1201 14.3383 13.9876 14.4636C12.4592 15.9131 10.4317 16.7191 8.32519 16.7143H8.21175C6.86059 16.6958 5.53466 16.3457 4.3505 15.6947C3.16633 15.0438 2.16019 14.1119 1.42051 12.9811C0.680823 11.8502 0.230241 10.555 0.108364 9.20918C-0.0135129 7.8634 0.197047 6.50828 0.721536 5.26293C1.24603 4.01759 2.06839 2.92013 3.11634 2.06704C4.16429 1.21394 5.40576 0.631315 6.73161 0.370372C8.05747 0.109429 9.42712 0.178157 10.7202 0.570514C12.0133 0.962872 13.1902 1.66685 14.1475 2.62056L16.5752 4.83775V2.27681C16.5752 2.09448 16.6476 1.91961 16.7766 1.79068C16.9055 1.66175 17.0804 1.58931 17.2627 1.58931C17.445 1.58931 17.6199 1.66175 17.7488 1.79068C17.8778 1.91961 17.9502 2.09448 17.9502 2.27681Z" fill="#343330"/>
</svg>
